<svg width="120" height="44" viewBox="0 0 120 44" fill="none" xmlns="http://www.w3.org/2000/svg">
<path d="M8.23795 14.1594C8.23795 13.6679 8.34395 13.1941 8.52947 12.7424C7.98176 13.0214 7.47381 13.3624 7.01002 13.7786C5.495 15.107 4.87662 16.7233 5.15931 18.5521C5.35365 20.155 6.21055 21.3639 7.69907 22.1432C8.55597 22.586 10.1019 23.0466 12.4297 23.5558L13.556 23.7993C15.0357 24.127 16.1929 24.5654 16.9924 25.0968C18.0657 25.8141 18.1718 26.5137 18.1629 26.93C18.1453 27.1735 18.0834 27.913 16.5772 28.6348C16.5066 28.6658 16.4315 28.6923 16.3608 28.7189C16.3873 28.8916 16.4005 29.0687 16.4005 29.2503C16.4005 30.5743 15.6717 31.7787 14.4792 32.7086C16.5154 32.5536 18.2424 32.0621 19.6117 31.2341C21.4624 30.1359 22.3988 28.6392 22.3988 26.7971C22.3988 25.0923 21.5728 23.7196 19.9562 22.7366C18.9006 22.0591 17.3369 21.4834 15.1859 20.9698C13.2954 20.5048 11.8952 20.0266 10.9853 19.5307C10.4067 19.2517 9.95174 18.9019 9.6293 18.4945C9.47912 18.2022 9.35986 17.7683 9.6028 17.1439C8.74148 16.2937 8.23795 15.2709 8.23795 14.1683V14.1594Z" fill="url(#paint0_linear_336_17158)"/>
<path d="M9.59871 17.1305C9.65614 16.9799 9.73122 16.8205 9.83723 16.6478C10.3364 15.8197 11.1932 15.3947 12.4874 15.3459C13.6579 15.2707 14.7003 15.4389 15.5528 15.833C16.0917 16.0943 16.7366 16.5548 17.4698 17.2146C17.8187 17.591 18.2516 17.8434 18.8037 17.9674C19.3514 18.0604 19.8461 17.9452 20.1951 17.7105C20.6456 17.4626 20.9371 17.0773 21.0343 16.6389C21.1845 16.0899 21.0564 15.5275 20.6898 15.067C19.9831 14.1459 18.9495 13.3887 17.6155 12.8264C16.1491 12.1887 14.4707 11.8655 12.6244 11.8655H12.3991C10.9459 11.8655 9.65172 12.1666 8.5298 12.7378C8.34429 13.1895 8.23828 13.6633 8.23828 14.1548C8.23828 15.2574 8.74182 16.2803 9.60313 17.1305H9.59871Z" fill="url(#paint1_linear_336_17158)"/>
<path d="M16.3962 29.2459C16.3962 29.0687 16.3829 28.8916 16.3564 28.7145C15.42 29.113 14.3555 29.3211 13.1806 29.3211H12.9995C11.8555 29.2724 10.7689 28.9315 9.75745 28.3027C8.69295 27.6606 7.96857 26.8636 7.54895 25.8584L7.41644 25.6414C6.93058 25.0658 6.30336 24.7646 5.59223 24.7646C5.38021 24.7646 5.15936 24.7912 4.97385 24.8399C4.37314 24.9551 3.94469 25.2252 3.70176 25.6458C3.53833 25.9248 3.39257 26.4075 3.609 27.0584C4.04187 28.5772 5.12403 29.8924 6.81573 30.9639C8.61345 32.1551 10.7115 32.7617 13.0481 32.7617C13.5428 32.7617 14.0154 32.7352 14.4748 32.6998C15.6674 31.7743 16.3962 30.5654 16.3962 29.2414V29.2459Z" fill="url(#paint2_linear_336_17158)"/>
<path d="M40.7556 22.8958C40.9411 24.5032 41.3784 26.58 41.0383 29.7328C40.8484 29.7682 40.5392 29.8656 40.0842 30.1402C39.2759 30.5874 38.3616 30.9549 37.3369 31.2428C36.2238 31.5571 35.2388 31.7166 34.4084 31.7166C32.4517 31.6546 30.7246 31.1763 29.2361 30.304C28.6575 28.245 28.4146 25.9202 28.9799 24.2243C29.267 25.0169 29.7264 25.7077 30.3669 26.3143C31.4888 27.3903 32.8713 27.9128 34.6072 27.9128C36.4535 27.9128 37.9067 27.3903 39.0507 26.3143C39.0507 26.3143 40.5922 24.6006 40.7512 22.9003" fill="url(#paint3_linear_336_17158)"/>
<path d="M40.5394 13.9468C38.8433 12.8176 36.8556 12.2419 34.6074 12.2419C31.8733 12.2419 29.4969 13.1586 27.5402 14.9785C25.5437 16.8604 24.5322 19.2162 24.5322 21.9793C24.5322 24.7424 25.4863 27.0317 27.3679 28.8915C27.9377 29.445 28.5649 29.9099 29.2363 30.304C28.852 28.6258 28.746 26.1771 28.9801 24.2243C28.7372 23.5601 28.6135 22.8339 28.6135 22.0236C28.6135 20.1328 29.1789 18.6582 30.345 17.5158C31.4581 16.422 32.8538 15.8907 34.6118 15.8907C35.9943 15.8907 37.1648 16.2139 38.1631 16.8648C38.4767 15.7047 39.148 14.5401 40.5394 13.9512V13.9468Z" fill="url(#paint4_linear_336_17158)"/>
<path d="M40.8089 22.0194C40.8089 22.325 40.7868 22.6128 40.7515 22.8962C40.937 24.5036 41.0828 26.753 41.0342 29.7331C41.1004 29.7198 41.1534 29.7154 41.1932 29.7154C41.3036 29.7154 41.361 29.742 41.3478 29.7331C41.3743 29.7508 41.626 29.9545 42.0766 30.9907L42.1428 31.159C42.4167 31.9427 43.0439 32.39 43.8699 32.39C44.0068 32.39 44.1526 32.3767 44.3116 32.3501C45.3893 32.1686 45.9768 31.4025 45.884 30.2556L44.7091 20.8106C44.3602 18.2689 43.2471 16.1744 41.3875 14.5758C41.1137 14.3456 40.8222 14.1375 40.5306 13.9426C39.1393 14.5316 38.4635 15.6961 38.1543 16.8563C38.4502 17.0511 38.7329 17.2681 39.0024 17.5205C40.2126 18.663 40.8001 20.1331 40.8001 22.0194H40.8089Z" fill="url(#paint5_linear_336_17158)"/>
<path d="M59.868 21.5053C59.868 19.4816 59.4616 18.0602 58.6666 17.2853C58.0791 16.7407 57.2355 16.4661 56.0959 16.4661C54.9563 16.4661 54.1524 16.7362 53.5517 17.2986C52.739 18.0691 52.3238 19.4595 52.3238 21.4256V30.171C52.3238 31.0832 51.7893 32.0529 50.2831 32.0529C49.0508 32.0529 48.2822 31.3312 48.2822 30.171V21.4256C48.2822 18.3038 49.1656 15.9392 50.9059 14.4071C52.2708 13.2203 53.9757 12.6226 55.9766 12.6226C57.1206 12.6226 58.1409 12.7908 59.0155 13.1229C59.8724 13.4595 60.7867 14.0263 61.7982 14.841L62.1825 15.4034C62.1825 15.4034 59.9077 19.9687 60.663 21.3503C61.4228 22.7318 59.8724 21.5097 59.8724 21.5097L59.868 21.5053Z" fill="url(#paint6_linear_336_17158)"/>
<path d="M74.0506 15.6381C73.6973 15.0979 73.2865 14.6241 72.8051 14.2256C71.4711 13.1318 69.6822 12.5828 67.4738 12.5828C66.4181 12.5828 65.4066 12.7953 64.4525 13.2293C64.0638 13.4152 63.525 13.7296 62.8403 14.1592C62.8403 14.1592 60.1681 15.4034 59.8633 21.771V30.1711C59.8633 31.0434 60.3889 31.9733 61.8642 31.9733C63.3395 31.9733 63.9048 31.0434 63.9048 30.1711V21.4655C63.9048 19.495 64.3244 18.0869 65.1327 17.2987C65.7335 16.7407 66.555 16.4662 67.6372 16.4662C68.7812 16.4662 69.6469 16.7407 70.2167 17.2898C70.4287 17.4891 70.6098 17.7326 70.7688 18.016C71.0957 16.8647 71.9835 15.8463 74.0506 15.6337V15.6381Z" fill="url(#paint7_linear_336_17158)"/>
<path d="M71.4585 30.1711C71.4585 31.0434 71.9842 31.9733 73.4594 31.9733C74.9347 31.9733 75.5001 31.0434 75.5001 30.1711V21.5054C75.5001 19.0611 75.0142 17.0994 74.0601 15.6382C71.993 15.8463 71.1052 16.8692 70.7783 18.0205C71.2333 18.8397 71.4629 20.0087 71.4629 21.5054V30.1711H71.4585Z" fill="url(#paint8_linear_336_17158)"/>
<defs>
<linearGradient id="paint0_linear_336_17158" x1="13.6046" y1="26.5669" x2="13.8887" y2="17.7152" gradientUnits="userSpaceOnUse">
<stop stop-color="#0076A9"/>
<stop offset="0.38" stop-color="#1B8E78"/>
<stop offset="0.79" stop-color="#35A548"/>
<stop offset="1" stop-color="#40AF36"/>
</linearGradient>
<linearGradient id="paint1_linear_336_17158" x1="8.23828" y1="14.9386" x2="21.0961" y2="14.9386" gradientUnits="userSpaceOnUse">
<stop stop-color="#0070A1"/>
<stop offset="0.34" stop-color="#188878"/>
<stop offset="0.78" stop-color="#34A448"/>
<stop offset="1" stop-color="#40AF36"/>
</linearGradient>
<linearGradient id="paint2_linear_336_17158" x1="2.00122" y1="24.3218" x2="12.2437" y2="30.2023" gradientUnits="userSpaceOnUse">
<stop stop-color="#0076A9"/>
<stop offset="0.38" stop-color="#1B8E78"/>
<stop offset="0.79" stop-color="#35A548"/>
<stop offset="1" stop-color="#40AF36"/>
</linearGradient>
<linearGradient id="paint3_linear_336_17158" x1="37.0586" y1="22.9711" x2="31.0941" y2="34.5738" gradientUnits="userSpaceOnUse">
<stop stop-color="#0076A9"/>
<stop offset="0.38" stop-color="#1B8E78"/>
<stop offset="0.79" stop-color="#35A548"/>
<stop offset="1" stop-color="#40AF36"/>
</linearGradient>
<linearGradient id="paint4_linear_336_17158" x1="24.5366" y1="21.2708" x2="40.5394" y2="21.2708" gradientUnits="userSpaceOnUse">
<stop stop-color="#0070A1"/>
<stop offset="0.34" stop-color="#188878"/>
<stop offset="0.78" stop-color="#34A448"/>
<stop offset="1" stop-color="#40AF36"/>
</linearGradient>
<linearGradient id="paint5_linear_336_17158" x1="38.1631" y1="23.1663" x2="45.9017" y2="23.1663" gradientUnits="userSpaceOnUse">
<stop stop-color="#0070A1"/>
<stop offset="0.34" stop-color="#188878"/>
<stop offset="0.78" stop-color="#34A448"/>
<stop offset="1" stop-color="#40AF36"/>
</linearGradient>
<linearGradient id="paint6_linear_336_17158" x1="47.0543" y1="22.1429" x2="56.0253" y2="22.4249" gradientUnits="userSpaceOnUse">
<stop stop-color="#0076A9"/>
<stop offset="0.25" stop-color="#0D8191"/>
<stop offset="0.76" stop-color="#2E9F55"/>
<stop offset="1" stop-color="#40AF36"/>
</linearGradient>
<linearGradient id="paint7_linear_336_17158" x1="59.8677" y1="22.2758" x2="74.0506" y2="22.2758" gradientUnits="userSpaceOnUse">
<stop stop-color="#0076A9"/>
<stop offset="0.04" stop-color="#0379A2"/>
<stop offset="0.24" stop-color="#198C7B"/>
<stop offset="0.44" stop-color="#2A9B5D"/>
<stop offset="0.64" stop-color="#36A647"/>
<stop offset="0.83" stop-color="#3DAC3A"/>
<stop offset="1" stop-color="#40AF36"/>
</linearGradient>
<linearGradient id="paint8_linear_336_17158" x1="71.7015" y1="22.5681" x2="75.4804" y2="25.4107" gradientUnits="userSpaceOnUse">
<stop stop-color="#0076A9"/>
<stop offset="0.38" stop-color="#1B8E78"/>
<stop offset="0.79" stop-color="#35A548"/>
<stop offset="1" stop-color="#40AF36"/>
</linearGradient>
</defs>
</svg>
